<mxfile host="app.diagrams.net" modified="2022-06-09T12:05:00.892Z" agent="5.0 (Windows NT 10.0; Win64; x64) AppleWebKit/537.36 (KHTML, like Gecko) Chrome/102.0.5005.63 Safari/537.36" etag="HXYpbAgyWv_MnwSQfM2p" version="19.0.2" type="github">
  <diagram name="Page-1" id="82e54ff1-d628-8f03-85c4-9753963a91cd">
    <mxGraphModel dx="3271" dy="3731" grid="1" gridSize="10" guides="1" tooltips="1" connect="1" arrows="1" fold="1" page="1" pageScale="1" pageWidth="1100" pageHeight="850" background="none" math="0" shadow="0">
      <root>
        <mxCell id="0" />
        <mxCell id="1" parent="0" />
        <mxCell id="Lheqyd3v5UKoI2d5zXlv-3" value="&lt;font style=&quot;font-size: 18px;&quot;&gt;.WORD&lt;/font&gt;" style="shape=note;whiteSpace=wrap;html=1;backgroundOutline=1;darkOpacity=0.05;sketch=1;fillColor=#D9F5FC;strokeColor=#6c8ebf;shadow=1;gradientDirection=south;gradientColor=#7ea6e0;" parent="1" vertex="1">
          <mxGeometry x="-938" y="-590" width="70" height="100" as="geometry" />
        </mxCell>
        <mxCell id="Lheqyd3v5UKoI2d5zXlv-5" value="&lt;font style=&quot;font-size: 18px;&quot;&gt;.PDF&lt;/font&gt;" style="shape=note;whiteSpace=wrap;html=1;backgroundOutline=1;darkOpacity=0.05;sketch=1;fillColor=#f8cecc;strokeColor=#b85450;shadow=1;gradientDirection=south;gradientColor=#ea6b66;" parent="1" vertex="1">
          <mxGeometry x="981.91" y="-1740" width="70" height="100" as="geometry" />
        </mxCell>
        <mxCell id="Lheqyd3v5UKoI2d5zXlv-75" style="edgeStyle=orthogonalEdgeStyle;curved=0;rounded=1;sketch=0;orthogonalLoop=1;jettySize=auto;html=1;entryX=0.5;entryY=0;entryDx=0;entryDy=0;fontSize=30;" parent="1" edge="1">
          <mxGeometry relative="1" as="geometry">
            <mxPoint x="1076.91" y="-1592" as="sourcePoint" />
            <mxPoint x="1206.91" y="-1522" as="targetPoint" />
          </mxGeometry>
        </mxCell>
        <mxCell id="Lheqyd3v5UKoI2d5zXlv-77" style="edgeStyle=orthogonalEdgeStyle;curved=0;rounded=1;sketch=0;orthogonalLoop=1;jettySize=auto;html=1;entryX=0.5;entryY=0;entryDx=0;entryDy=0;fontSize=30;" parent="1" edge="1">
          <mxGeometry relative="1" as="geometry">
            <mxPoint x="956.91" y="-1592" as="sourcePoint" />
            <mxPoint x="826.91" y="-1522" as="targetPoint" />
          </mxGeometry>
        </mxCell>
        <mxCell id="Lheqyd3v5UKoI2d5zXlv-78" style="edgeStyle=orthogonalEdgeStyle;curved=0;rounded=1;sketch=0;orthogonalLoop=1;jettySize=auto;html=1;exitX=0.5;exitY=1;exitDx=0;exitDy=0;entryX=0.5;entryY=0;entryDx=0;entryDy=0;fontSize=30;" parent="1" edge="1" source="Lheqyd3v5UKoI2d5zXlv-8">
          <mxGeometry relative="1" as="geometry">
            <mxPoint x="1016.91" y="-1552" as="sourcePoint" />
            <mxPoint x="1016.91" y="-1522" as="targetPoint" />
          </mxGeometry>
        </mxCell>
        <mxCell id="Lheqyd3v5UKoI2d5zXlv-95" style="edgeStyle=orthogonalEdgeStyle;shape=link;curved=0;rounded=1;sketch=0;orthogonalLoop=1;jettySize=auto;html=1;exitX=0.5;exitY=0;exitDx=0;exitDy=0;entryX=0.5;entryY=1;entryDx=0;entryDy=0;entryPerimeter=0;fontSize=30;" parent="1" source="Lheqyd3v5UKoI2d5zXlv-8" target="Lheqyd3v5UKoI2d5zXlv-5" edge="1">
          <mxGeometry relative="1" as="geometry" />
        </mxCell>
        <mxCell id="Lheqyd3v5UKoI2d5zXlv-8" value="BMR002 QTRACEÂ® Assay Tube&lt;br&gt;Manufacturing Protocol" style="text;whiteSpace=wrap;html=1;align=center;strokeColor=default;rounded=1;glass=0;shadow=0;sketch=0;fillColor=default;" parent="1" vertex="1">
          <mxGeometry x="956.91" y="-1630" width="120" height="70" as="geometry" />
        </mxCell>
        <mxCell id="Lheqyd3v5UKoI2d5zXlv-12" value="List" style="swimlane;fontStyle=0;childLayout=stackLayout;horizontal=1;startSize=30;horizontalStack=0;resizeParent=1;resizeParentMax=0;resizeLast=0;collapsible=1;marginBottom=0;shadow=1;sketch=0;fontFamily=Helvetica;fontSize=14;fillColor=#D9F5FC;gradientColor=#ffffff;gradientDirection=south;" parent="1" vertex="1">
          <mxGeometry x="-690" y="-600" width="140" height="120" as="geometry" />
        </mxCell>
        <mxCell id="Lheqyd3v5UKoI2d5zXlv-13" value="Item 1" style="text;strokeColor=none;fillColor=none;align=left;verticalAlign=middle;spacingLeft=4;spacingRight=4;overflow=hidden;points=[[0,0.5],[1,0.5]];portConstraint=eastwest;rotatable=0;shadow=1;sketch=0;fontFamily=Helvetica;fontSize=14;" parent="Lheqyd3v5UKoI2d5zXlv-12" vertex="1">
          <mxGeometry y="30" width="140" height="30" as="geometry" />
        </mxCell>
        <mxCell id="Lheqyd3v5UKoI2d5zXlv-14" value="Item 2" style="text;strokeColor=none;fillColor=none;align=left;verticalAlign=middle;spacingLeft=4;spacingRight=4;overflow=hidden;points=[[0,0.5],[1,0.5]];portConstraint=eastwest;rotatable=0;shadow=1;sketch=0;fontFamily=Helvetica;fontSize=14;" parent="Lheqyd3v5UKoI2d5zXlv-12" vertex="1">
          <mxGeometry y="60" width="140" height="30" as="geometry" />
        </mxCell>
        <mxCell id="Lheqyd3v5UKoI2d5zXlv-15" value="Item 3" style="text;strokeColor=none;fillColor=none;align=left;verticalAlign=middle;spacingLeft=4;spacingRight=4;overflow=hidden;points=[[0,0.5],[1,0.5]];portConstraint=eastwest;rotatable=0;shadow=1;sketch=0;fontFamily=Helvetica;fontSize=14;" parent="Lheqyd3v5UKoI2d5zXlv-12" vertex="1">
          <mxGeometry y="90" width="140" height="30" as="geometry" />
        </mxCell>
        <mxCell id="Lheqyd3v5UKoI2d5zXlv-93" style="edgeStyle=orthogonalEdgeStyle;curved=0;rounded=1;sketch=0;orthogonalLoop=1;jettySize=auto;html=1;entryX=0;entryY=0.5;entryDx=0;entryDy=0;fontSize=30;" parent="1" source="Lheqyd3v5UKoI2d5zXlv-16" target="Lheqyd3v5UKoI2d5zXlv-80" edge="1">
          <mxGeometry relative="1" as="geometry">
            <Array as="points">
              <mxPoint x="709.91" y="-1410" />
              <mxPoint x="709.91" y="-1070" />
            </Array>
          </mxGeometry>
        </mxCell>
        <mxCell id="Lheqyd3v5UKoI2d5zXlv-16" value="&lt;span style=&quot;&quot;&gt;&lt;font style=&quot;font-size: 18px;&quot;&gt;Calculate Oligonucleotide and TE Buffer Volumes&lt;/font&gt;&lt;/span&gt;" style="whiteSpace=wrap;html=1;aspect=fixed;rounded=1;shadow=0;glass=0;sketch=0;fontFamily=Helvetica;fontSize=12;strokeColor=#B09500;fillColor=#e3c800;gradientDirection=north;strokeWidth=1;fontColor=#000000;gradientColor=#ffffff;" parent="1" vertex="1">
          <mxGeometry x="746.91" y="-1490" width="160" height="160" as="geometry" />
        </mxCell>
        <mxCell id="Lheqyd3v5UKoI2d5zXlv-18" value="&lt;font style=&quot;font-size: 18px;&quot;&gt;&lt;span style=&quot;color: rgb(0, 0, 0);&quot;&gt;.XLSX&lt;/span&gt;&lt;/font&gt;" style="shape=note;whiteSpace=wrap;html=1;backgroundOutline=1;darkOpacity=0.05;sketch=1;fillColor=#60a917;strokeColor=#2D7600;fontColor=#ffffff;shadow=1;gradientColor=#ffffff;gradientDirection=north;" parent="1" vertex="1">
          <mxGeometry x="-1028" y="-590" width="70" height="100" as="geometry" />
        </mxCell>
        <mxCell id="Lheqyd3v5UKoI2d5zXlv-91" style="edgeStyle=orthogonalEdgeStyle;curved=0;rounded=1;sketch=0;orthogonalLoop=1;jettySize=auto;html=1;entryX=0.5;entryY=0;entryDx=0;entryDy=0;fontSize=30;" parent="1" source="Lheqyd3v5UKoI2d5zXlv-21" target="Lheqyd3v5UKoI2d5zXlv-90" edge="1">
          <mxGeometry relative="1" as="geometry" />
        </mxCell>
        <mxCell id="Lheqyd3v5UKoI2d5zXlv-21" value="&lt;span style=&quot;font-size: 18px;&quot;&gt;Production of QTRACE INDEL Assays from existing qualified bulk intermediates&lt;/span&gt;" style="whiteSpace=wrap;html=1;aspect=fixed;rounded=1;shadow=0;glass=0;sketch=0;fontFamily=Helvetica;fontSize=12;strokeColor=#B09500;fillColor=#e3c800;gradientDirection=north;strokeWidth=1;fontColor=#000000;gradientColor=#ffffff;" parent="1" vertex="1">
          <mxGeometry x="936.91" y="-1490" width="160" height="160" as="geometry" />
        </mxCell>
        <mxCell id="Lheqyd3v5UKoI2d5zXlv-44" style="edgeStyle=orthogonalEdgeStyle;rounded=1;orthogonalLoop=1;jettySize=auto;html=1;entryX=0.5;entryY=0;entryDx=0;entryDy=0;entryPerimeter=0;fontFamily=Helvetica;fontSize=18;strokeColor=default;" parent="1" source="Lheqyd3v5UKoI2d5zXlv-22" target="Lheqyd3v5UKoI2d5zXlv-24" edge="1">
          <mxGeometry relative="1" as="geometry" />
        </mxCell>
        <mxCell id="Lheqyd3v5UKoI2d5zXlv-45" style="edgeStyle=orthogonalEdgeStyle;rounded=1;orthogonalLoop=1;jettySize=auto;html=1;entryX=0.5;entryY=0;entryDx=0;entryDy=0;entryPerimeter=0;fontFamily=Helvetica;fontSize=18;strokeColor=default;" parent="1" source="Lheqyd3v5UKoI2d5zXlv-22" target="Lheqyd3v5UKoI2d5zXlv-42" edge="1">
          <mxGeometry relative="1" as="geometry" />
        </mxCell>
        <mxCell id="Lheqyd3v5UKoI2d5zXlv-46" style="edgeStyle=orthogonalEdgeStyle;rounded=1;orthogonalLoop=1;jettySize=auto;html=1;entryX=0.5;entryY=0;entryDx=0;entryDy=0;entryPerimeter=0;fontFamily=Helvetica;fontSize=18;strokeColor=default;" parent="1" source="Lheqyd3v5UKoI2d5zXlv-22" target="Lheqyd3v5UKoI2d5zXlv-23" edge="1">
          <mxGeometry relative="1" as="geometry" />
        </mxCell>
        <mxCell id="Lheqyd3v5UKoI2d5zXlv-48" style="edgeStyle=orthogonalEdgeStyle;rounded=1;orthogonalLoop=1;jettySize=auto;html=1;entryX=0.5;entryY=0;entryDx=0;entryDy=0;entryPerimeter=0;fontFamily=Helvetica;fontSize=18;strokeColor=default;" parent="1" source="Lheqyd3v5UKoI2d5zXlv-22" target="Lheqyd3v5UKoI2d5zXlv-47" edge="1">
          <mxGeometry relative="1" as="geometry" />
        </mxCell>
        <mxCell id="Lheqyd3v5UKoI2d5zXlv-22" value="Oligos" style="shape=cylinder3;whiteSpace=wrap;html=1;boundedLbl=1;backgroundOutline=1;size=15;rounded=1;shadow=0;glass=0;sketch=0;fontFamily=Helvetica;fontSize=18;strokeWidth=1;gradientDirection=north;fillColor=#f8cecc;strokeColor=#b85450;" parent="1" vertex="1">
          <mxGeometry x="-875" y="-1485" width="70" height="110" as="geometry" />
        </mxCell>
        <mxCell id="Lheqyd3v5UKoI2d5zXlv-30" style="edgeStyle=orthogonalEdgeStyle;rounded=1;orthogonalLoop=1;jettySize=auto;html=1;entryX=1;entryY=0.5;entryDx=0;entryDy=0;entryPerimeter=0;fontFamily=Helvetica;fontSize=18;strokeColor=default;" parent="1" source="Lheqyd3v5UKoI2d5zXlv-23" target="Lheqyd3v5UKoI2d5zXlv-24" edge="1">
          <mxGeometry relative="1" as="geometry" />
        </mxCell>
        <mxCell id="Lheqyd3v5UKoI2d5zXlv-23" value="40X Assay" style="shape=cylinder3;whiteSpace=wrap;html=1;boundedLbl=1;backgroundOutline=1;size=15;rounded=1;shadow=0;glass=0;sketch=0;fontFamily=Helvetica;fontSize=18;strokeColor=#82b366;strokeWidth=1;fillColor=#d5e8d4;gradientDirection=north;" parent="1" vertex="1">
          <mxGeometry x="-590" y="-1370" width="70" height="110" as="geometry" />
        </mxCell>
        <mxCell id="Lheqyd3v5UKoI2d5zXlv-37" style="edgeStyle=orthogonalEdgeStyle;rounded=1;orthogonalLoop=1;jettySize=auto;html=1;entryX=0.5;entryY=0;entryDx=0;entryDy=0;fontFamily=Helvetica;fontSize=18;strokeColor=default;" parent="1" source="Lheqyd3v5UKoI2d5zXlv-24" target="Lheqyd3v5UKoI2d5zXlv-36" edge="1">
          <mxGeometry relative="1" as="geometry" />
        </mxCell>
        <mxCell id="Lheqyd3v5UKoI2d5zXlv-53" style="edgeStyle=orthogonalEdgeStyle;rounded=1;orthogonalLoop=1;jettySize=auto;html=1;entryX=0.5;entryY=0;entryDx=0;entryDy=0;fontFamily=Helvetica;fontSize=18;strokeColor=default;" parent="1" source="Lheqyd3v5UKoI2d5zXlv-24" target="Lheqyd3v5UKoI2d5zXlv-49" edge="1">
          <mxGeometry relative="1" as="geometry" />
        </mxCell>
        <mxCell id="Lheqyd3v5UKoI2d5zXlv-24" value="5X Assay" style="shape=cylinder3;whiteSpace=wrap;html=1;boundedLbl=1;backgroundOutline=1;size=15;rounded=1;shadow=0;glass=0;sketch=0;fontFamily=Helvetica;fontSize=18;strokeWidth=1;gradientDirection=north;fillColor=#d5e8d4;strokeColor=#82b366;" parent="1" vertex="1">
          <mxGeometry x="-730" y="-1370" width="70" height="110" as="geometry" />
        </mxCell>
        <mxCell id="Lheqyd3v5UKoI2d5zXlv-36" value="Plate" style="rounded=0;whiteSpace=wrap;html=1;shadow=0;glass=0;sketch=0;fontFamily=Helvetica;fontSize=18;strokeColor=#6c8ebf;strokeWidth=1;fillColor=#dae8fc;gradientDirection=north;" parent="1" vertex="1">
          <mxGeometry x="-880" y="-1210" width="80" height="60" as="geometry" />
        </mxCell>
        <mxCell id="Lheqyd3v5UKoI2d5zXlv-43" style="edgeStyle=orthogonalEdgeStyle;rounded=1;orthogonalLoop=1;jettySize=auto;html=1;entryX=0.5;entryY=0;entryDx=0;entryDy=0;fontFamily=Helvetica;fontSize=18;strokeColor=default;" parent="1" source="Lheqyd3v5UKoI2d5zXlv-42" target="Lheqyd3v5UKoI2d5zXlv-36" edge="1">
          <mxGeometry relative="1" as="geometry" />
        </mxCell>
        <mxCell id="Lheqyd3v5UKoI2d5zXlv-52" style="edgeStyle=orthogonalEdgeStyle;rounded=1;orthogonalLoop=1;jettySize=auto;html=1;entryX=0.5;entryY=0;entryDx=0;entryDy=0;fontFamily=Helvetica;fontSize=18;strokeColor=default;" parent="1" source="Lheqyd3v5UKoI2d5zXlv-42" target="Lheqyd3v5UKoI2d5zXlv-51" edge="1">
          <mxGeometry relative="1" as="geometry" />
        </mxCell>
        <mxCell id="Lheqyd3v5UKoI2d5zXlv-42" value="RNaseP" style="shape=cylinder3;whiteSpace=wrap;html=1;boundedLbl=1;backgroundOutline=1;size=15;rounded=1;shadow=0;glass=0;sketch=0;fontFamily=Helvetica;fontSize=18;strokeColor=#82b366;strokeWidth=1;fillColor=#d5e8d4;gradientDirection=north;" parent="1" vertex="1">
          <mxGeometry x="-1010" y="-1370" width="70" height="110" as="geometry" />
        </mxCell>
        <mxCell id="Lheqyd3v5UKoI2d5zXlv-54" style="edgeStyle=orthogonalEdgeStyle;rounded=1;orthogonalLoop=1;jettySize=auto;html=1;entryX=0.5;entryY=0;entryDx=0;entryDy=0;fontFamily=Helvetica;fontSize=18;strokeColor=default;" parent="1" source="Lheqyd3v5UKoI2d5zXlv-47" target="Lheqyd3v5UKoI2d5zXlv-50" edge="1">
          <mxGeometry relative="1" as="geometry" />
        </mxCell>
        <mxCell id="Lheqyd3v5UKoI2d5zXlv-47" value="20X dPCR Assay" style="shape=cylinder3;whiteSpace=wrap;html=1;boundedLbl=1;backgroundOutline=1;size=15;rounded=1;shadow=0;glass=0;sketch=0;fontFamily=Helvetica;fontSize=18;strokeColor=#82b366;strokeWidth=1;fillColor=#d5e8d4;gradientDirection=north;" parent="1" vertex="1">
          <mxGeometry x="-450" y="-1370" width="70" height="110" as="geometry" />
        </mxCell>
        <mxCell id="Lheqyd3v5UKoI2d5zXlv-49" value="Tube" style="rounded=0;whiteSpace=wrap;html=1;shadow=0;glass=0;sketch=0;fontFamily=Helvetica;fontSize=18;strokeColor=#6c8ebf;strokeWidth=1;fillColor=#dae8fc;gradientDirection=north;" parent="1" vertex="1">
          <mxGeometry x="-735" y="-1210" width="80" height="60" as="geometry" />
        </mxCell>
        <mxCell id="Lheqyd3v5UKoI2d5zXlv-50" value="Tube" style="rounded=0;whiteSpace=wrap;html=1;shadow=0;glass=0;sketch=0;fontFamily=Helvetica;fontSize=18;strokeColor=#6c8ebf;strokeWidth=1;fillColor=#dae8fc;gradientDirection=north;" parent="1" vertex="1">
          <mxGeometry x="-455" y="-1210" width="80" height="60" as="geometry" />
        </mxCell>
        <mxCell id="Lheqyd3v5UKoI2d5zXlv-51" value="Tube" style="rounded=0;whiteSpace=wrap;html=1;shadow=0;glass=0;sketch=0;fontFamily=Helvetica;fontSize=18;strokeColor=#6c8ebf;strokeWidth=1;fillColor=#dae8fc;gradientDirection=north;" parent="1" vertex="1">
          <mxGeometry x="-1015" y="-1210" width="80" height="60" as="geometry" />
        </mxCell>
        <mxCell id="Lheqyd3v5UKoI2d5zXlv-55" value="1." style="text;html=1;strokeColor=none;fillColor=none;align=center;verticalAlign=middle;whiteSpace=wrap;rounded=0;shadow=0;glass=0;sketch=0;fontFamily=Helvetica;fontSize=18;" parent="1" vertex="1">
          <mxGeometry x="-740" y="-1420" width="60" height="30" as="geometry" />
        </mxCell>
        <mxCell id="Lheqyd3v5UKoI2d5zXlv-56" value="7." style="text;html=1;strokeColor=none;fillColor=none;align=center;verticalAlign=middle;whiteSpace=wrap;rounded=0;shadow=0;glass=0;sketch=0;fontFamily=Helvetica;fontSize=18;" parent="1" vertex="1">
          <mxGeometry x="-735" y="-1250" width="60" height="30" as="geometry" />
        </mxCell>
        <mxCell id="Lheqyd3v5UKoI2d5zXlv-57" value="2." style="text;html=1;strokeColor=none;fillColor=none;align=center;verticalAlign=middle;whiteSpace=wrap;rounded=0;shadow=0;glass=0;sketch=0;fontFamily=Helvetica;fontSize=18;" parent="1" vertex="1">
          <mxGeometry x="-650" y="-1350" width="60" height="30" as="geometry" />
        </mxCell>
        <mxCell id="Lheqyd3v5UKoI2d5zXlv-58" value="3." style="text;html=1;strokeColor=none;fillColor=none;align=center;verticalAlign=middle;whiteSpace=wrap;rounded=0;shadow=0;glass=0;sketch=0;fontFamily=Helvetica;fontSize=18;" parent="1" vertex="1">
          <mxGeometry x="-1020" y="-1420" width="60" height="30" as="geometry" />
        </mxCell>
        <mxCell id="Lheqyd3v5UKoI2d5zXlv-59" value="4." style="text;html=1;strokeColor=none;fillColor=none;align=center;verticalAlign=middle;whiteSpace=wrap;rounded=0;shadow=0;glass=0;sketch=0;fontFamily=Helvetica;fontSize=18;" parent="1" vertex="1">
          <mxGeometry x="-600" y="-1420" width="60" height="30" as="geometry" />
        </mxCell>
        <mxCell id="Lheqyd3v5UKoI2d5zXlv-60" value="5." style="text;html=1;strokeColor=none;fillColor=none;align=center;verticalAlign=middle;whiteSpace=wrap;rounded=0;shadow=0;glass=0;sketch=0;fontFamily=Helvetica;fontSize=18;" parent="1" vertex="1">
          <mxGeometry x="-460" y="-1420" width="60" height="30" as="geometry" />
        </mxCell>
        <mxCell id="Lheqyd3v5UKoI2d5zXlv-61" value="6." style="text;html=1;strokeColor=none;fillColor=none;align=center;verticalAlign=middle;whiteSpace=wrap;rounded=0;shadow=0;glass=0;sketch=0;fontFamily=Helvetica;fontSize=18;" parent="1" vertex="1">
          <mxGeometry x="-890" y="-1280" width="60" height="30" as="geometry" />
        </mxCell>
        <mxCell id="Lheqyd3v5UKoI2d5zXlv-62" value="&lt;font style=&quot;font-size: 30px;&quot;&gt;1.&lt;/font&gt;" style="text;html=1;strokeColor=none;fillColor=none;align=center;verticalAlign=middle;whiteSpace=wrap;rounded=0;shadow=0;glass=0;sketch=0;fontFamily=Helvetica;fontSize=18;" parent="1" vertex="1">
          <mxGeometry x="811.91" y="-1520" width="30" height="30" as="geometry" />
        </mxCell>
        <mxCell id="Lheqyd3v5UKoI2d5zXlv-63" value="&lt;font style=&quot;font-size: 30px;&quot;&gt;2.&lt;/font&gt;" style="text;html=1;strokeColor=none;fillColor=none;align=center;verticalAlign=middle;whiteSpace=wrap;rounded=0;shadow=0;glass=0;sketch=0;fontFamily=Helvetica;fontSize=18;" parent="1" vertex="1">
          <mxGeometry x="1001.91" y="-1520" width="30" height="30" as="geometry" />
        </mxCell>
        <mxCell id="Lheqyd3v5UKoI2d5zXlv-64" value="&lt;font style=&quot;font-size: 30px;&quot;&gt;3.&lt;/font&gt;" style="text;html=1;strokeColor=none;fillColor=none;align=center;verticalAlign=middle;whiteSpace=wrap;rounded=0;shadow=0;glass=0;sketch=0;fontFamily=Helvetica;fontSize=18;" parent="1" vertex="1">
          <mxGeometry x="1191.91" y="-1519" width="30" height="30" as="geometry" />
        </mxCell>
        <mxCell id="Lheqyd3v5UKoI2d5zXlv-65" style="edgeStyle=orthogonalEdgeStyle;curved=0;rounded=1;sketch=0;orthogonalLoop=1;jettySize=auto;html=1;exitX=0.5;exitY=1;exitDx=0;exitDy=0;" parent="1" source="Lheqyd3v5UKoI2d5zXlv-63" target="Lheqyd3v5UKoI2d5zXlv-63" edge="1">
          <mxGeometry relative="1" as="geometry" />
        </mxCell>
        <mxCell id="Lheqyd3v5UKoI2d5zXlv-66" value="8." style="text;html=1;strokeColor=none;fillColor=none;align=center;verticalAlign=middle;whiteSpace=wrap;rounded=0;shadow=0;glass=0;sketch=0;fontFamily=Helvetica;fontSize=18;" parent="1" vertex="1">
          <mxGeometry x="-460" y="-1250" width="60" height="30" as="geometry" />
        </mxCell>
        <mxCell id="Lheqyd3v5UKoI2d5zXlv-92" style="edgeStyle=orthogonalEdgeStyle;curved=0;rounded=1;sketch=0;orthogonalLoop=1;jettySize=auto;html=1;entryX=1;entryY=0.5;entryDx=0;entryDy=0;fontSize=30;" parent="1" source="Lheqyd3v5UKoI2d5zXlv-69" target="Lheqyd3v5UKoI2d5zXlv-80" edge="1">
          <mxGeometry relative="1" as="geometry">
            <Array as="points">
              <mxPoint x="1319.91" y="-1410" />
              <mxPoint x="1319.91" y="-1070" />
            </Array>
          </mxGeometry>
        </mxCell>
        <mxCell id="Lheqyd3v5UKoI2d5zXlv-69" value="&lt;span style=&quot;font-size: 18px;&quot;&gt;Production of a Reference Assay from oligonucleotides&lt;/span&gt;" style="whiteSpace=wrap;html=1;aspect=fixed;rounded=1;shadow=0;glass=0;sketch=0;fontFamily=Helvetica;fontSize=12;strokeColor=#B09500;fillColor=#e3c800;gradientDirection=north;strokeWidth=1;fontColor=#000000;gradientColor=#ffffff;" parent="1" vertex="1">
          <mxGeometry x="1126.91" y="-1490" width="160" height="160" as="geometry" />
        </mxCell>
        <mxCell id="Lheqyd3v5UKoI2d5zXlv-79" value="&lt;font style=&quot;font-size: 18px;&quot;&gt;&lt;span style=&quot;color: rgb(0, 0, 0);&quot;&gt;.XLSX&lt;/span&gt;&lt;/font&gt;" style="shape=note;whiteSpace=wrap;html=1;backgroundOutline=1;darkOpacity=0.05;sketch=1;fillColor=#60a917;strokeColor=#2D7600;fontColor=#ffffff;shadow=1;gradientColor=#ffffff;gradientDirection=north;" parent="1" vertex="1">
          <mxGeometry x="981.91" y="-1210" width="70" height="100" as="geometry" />
        </mxCell>
        <mxCell id="Lheqyd3v5UKoI2d5zXlv-94" style="edgeStyle=orthogonalEdgeStyle;curved=0;rounded=1;sketch=0;orthogonalLoop=1;jettySize=auto;html=1;exitX=0.5;exitY=0;exitDx=0;exitDy=0;entryX=0.5;entryY=1;entryDx=0;entryDy=0;entryPerimeter=0;fontSize=30;shape=link;" parent="1" source="Lheqyd3v5UKoI2d5zXlv-80" target="Lheqyd3v5UKoI2d5zXlv-79" edge="1">
          <mxGeometry relative="1" as="geometry" />
        </mxCell>
        <mxCell id="Lheqyd3v5UKoI2d5zXlv-80" value="&lt;span style=&quot;text-align: left;&quot;&gt;&lt;font style=&quot;font-size: 12px;&quot;&gt;Assay Tube Production Record template&lt;/font&gt;&lt;/span&gt;" style="text;whiteSpace=wrap;html=1;align=center;strokeColor=default;rounded=1;glass=0;shadow=0;sketch=0;fillColor=default;" parent="1" vertex="1">
          <mxGeometry x="961.91" y="-1100" width="110" height="60" as="geometry" />
        </mxCell>
        <mxCell id="Lheqyd3v5UKoI2d5zXlv-90" value="&lt;div style=&quot;&quot;&gt;&lt;span style=&quot;background-color: initial;&quot;&gt;Volume of Assay stock required = 5 / (stock fold concentration) x Volume of 5x Assay required&lt;/span&gt;&lt;/div&gt;" style="text;whiteSpace=wrap;html=1;align=center;strokeColor=default;rounded=1;glass=0;shadow=0;sketch=0;fillColor=default;" parent="1" vertex="1">
          <mxGeometry x="759.91" y="-1290" width="515.25" height="30" as="geometry" />
        </mxCell>
        <mxCell id="Lheqyd3v5UKoI2d5zXlv-96" value="&lt;font style=&quot;font-size: 41px;&quot;&gt;QTRACE Tube Production&lt;/font&gt;" style="text;html=1;align=center;verticalAlign=middle;whiteSpace=wrap;rounded=0;glass=0;sketch=0;fontSize=30;fillColor=#FFFDF3;strokeColor=#36393d;" parent="1" vertex="1">
          <mxGeometry x="761.91" y="-1930" width="528" height="90" as="geometry" />
        </mxCell>
        <mxCell id="Lheqyd3v5UKoI2d5zXlv-97" value="&lt;font style=&quot;font-size: 41px;&quot;&gt;QTRACE Plate Production&lt;/font&gt;" style="text;html=1;align=center;verticalAlign=middle;whiteSpace=wrap;rounded=0;glass=0;sketch=0;fontSize=30;fillColor=#FFFDF3;strokeColor=#36393d;" parent="1" vertex="1">
          <mxGeometry x="1506.91" y="-1930" width="528" height="90" as="geometry" />
        </mxCell>
        <mxCell id="Lheqyd3v5UKoI2d5zXlv-98" value="&lt;font style=&quot;font-size: 41px;&quot;&gt;Quality control&lt;/font&gt;" style="text;html=1;align=center;verticalAlign=middle;whiteSpace=wrap;rounded=0;glass=0;sketch=0;fontSize=30;fillColor=#FFFDF3;strokeColor=#36393d;" parent="1" vertex="1">
          <mxGeometry x="2286.91" y="-1930" width="528" height="90" as="geometry" />
        </mxCell>
        <mxCell id="Lheqyd3v5UKoI2d5zXlv-99" value="&lt;font style=&quot;font-size: 18px;&quot;&gt;.PDF&lt;/font&gt;" style="shape=note;whiteSpace=wrap;html=1;backgroundOutline=1;darkOpacity=0.05;sketch=1;fillColor=#f8cecc;strokeColor=#b85450;shadow=1;gradientDirection=south;gradientColor=#ea6b66;" parent="1" vertex="1">
          <mxGeometry x="-848" y="-590" width="70" height="100" as="geometry" />
        </mxCell>
        <mxCell id="Lheqyd3v5UKoI2d5zXlv-116" style="edgeStyle=orthogonalEdgeStyle;shape=link;curved=0;rounded=1;sketch=0;orthogonalLoop=1;jettySize=auto;html=1;exitX=0.5;exitY=1;exitDx=0;exitDy=0;exitPerimeter=0;entryX=0.5;entryY=0;entryDx=0;entryDy=0;fontSize=41;strokeWidth=2;" parent="1" source="Lheqyd3v5UKoI2d5zXlv-104" target="Lheqyd3v5UKoI2d5zXlv-105" edge="1">
          <mxGeometry relative="1" as="geometry" />
        </mxCell>
        <mxCell id="Lheqyd3v5UKoI2d5zXlv-104" value="&lt;font style=&quot;font-size: 18px;&quot;&gt;.WORD&lt;/font&gt;" style="shape=note;whiteSpace=wrap;html=1;backgroundOutline=1;darkOpacity=0.05;sketch=1;fillColor=#D9F5FC;strokeColor=#6c8ebf;shadow=1;gradientDirection=south;gradientColor=#7ea6e0;" parent="1" vertex="1">
          <mxGeometry x="2215.5" y="-1740" width="70" height="100" as="geometry" />
        </mxCell>
        <mxCell id="_ofi-eHrRNwAqA-1qhmZ-37" style="edgeStyle=orthogonalEdgeStyle;rounded=0;orthogonalLoop=1;jettySize=auto;html=1;entryX=0.5;entryY=0;entryDx=0;entryDy=0;fontSize=14;strokeWidth=1;" edge="1" parent="1" source="Lheqyd3v5UKoI2d5zXlv-105" target="_ofi-eHrRNwAqA-1qhmZ-25">
          <mxGeometry relative="1" as="geometry" />
        </mxCell>
        <mxCell id="Lheqyd3v5UKoI2d5zXlv-105" value="&lt;span style=&quot;text-align: left;&quot;&gt;&lt;font style=&quot;font-size: 12px;&quot;&gt;Quality control 004 - Assay Tube Qualification&lt;/font&gt;&lt;/span&gt;" style="text;whiteSpace=wrap;html=1;align=center;strokeColor=default;rounded=1;glass=0;shadow=0;sketch=0;fillColor=default;" parent="1" vertex="1">
          <mxGeometry x="2200" y="-1630" width="101" height="60" as="geometry" />
        </mxCell>
        <mxCell id="Lheqyd3v5UKoI2d5zXlv-117" style="edgeStyle=orthogonalEdgeStyle;shape=link;curved=0;rounded=1;sketch=0;orthogonalLoop=1;jettySize=auto;html=1;exitX=0.5;exitY=1;exitDx=0;exitDy=0;exitPerimeter=0;entryX=0.5;entryY=0;entryDx=0;entryDy=0;fontSize=41;strokeWidth=2;" parent="1" source="Lheqyd3v5UKoI2d5zXlv-106" target="Lheqyd3v5UKoI2d5zXlv-108" edge="1">
          <mxGeometry relative="1" as="geometry" />
        </mxCell>
        <mxCell id="Lheqyd3v5UKoI2d5zXlv-106" value="&lt;font style=&quot;font-size: 18px;&quot;&gt;.WORD&lt;/font&gt;" style="shape=note;whiteSpace=wrap;html=1;backgroundOutline=1;darkOpacity=0.05;sketch=1;fillColor=#D9F5FC;strokeColor=#6c8ebf;shadow=1;gradientDirection=south;gradientColor=#7ea6e0;" parent="1" vertex="1">
          <mxGeometry x="2416" y="-1740" width="70" height="100" as="geometry" />
        </mxCell>
        <mxCell id="_ofi-eHrRNwAqA-1qhmZ-38" style="edgeStyle=orthogonalEdgeStyle;rounded=0;orthogonalLoop=1;jettySize=auto;html=1;entryX=0.5;entryY=0;entryDx=0;entryDy=0;fontSize=14;strokeWidth=1;" edge="1" parent="1" source="Lheqyd3v5UKoI2d5zXlv-108" target="_ofi-eHrRNwAqA-1qhmZ-26">
          <mxGeometry relative="1" as="geometry" />
        </mxCell>
        <mxCell id="Lheqyd3v5UKoI2d5zXlv-108" value="&lt;span style=&quot;text-align: left;&quot;&gt;&lt;font style=&quot;font-size: 12px;&quot;&gt;Quality control 006 - Genotyping Plate Qualification&lt;/font&gt;&lt;/span&gt;" style="text;whiteSpace=wrap;html=1;align=center;strokeColor=default;rounded=1;glass=0;shadow=0;sketch=0;fillColor=default;" parent="1" vertex="1">
          <mxGeometry x="2400.5" y="-1630" width="101" height="60" as="geometry" />
        </mxCell>
        <mxCell id="_ofi-eHrRNwAqA-1qhmZ-41" style="edgeStyle=orthogonalEdgeStyle;rounded=0;orthogonalLoop=1;jettySize=auto;html=1;entryX=0.5;entryY=0;entryDx=0;entryDy=0;fontSize=14;strokeWidth=1;" edge="1" parent="1" source="Lheqyd3v5UKoI2d5zXlv-109" target="_ofi-eHrRNwAqA-1qhmZ-39">
          <mxGeometry relative="1" as="geometry" />
        </mxCell>
        <mxCell id="Lheqyd3v5UKoI2d5zXlv-109" value="&lt;span style=&quot;text-align: left;&quot;&gt;&lt;font style=&quot;font-size: 12px;&quot;&gt;Quality control 007 - RNase P Assay&amp;nbsp; Qualification&lt;/font&gt;&lt;/span&gt;" style="text;whiteSpace=wrap;html=1;align=center;strokeColor=default;rounded=1;glass=0;shadow=0;sketch=0;fillColor=default;" parent="1" vertex="1">
          <mxGeometry x="2600.5" y="-1630" width="100" height="70" as="geometry" />
        </mxCell>
        <mxCell id="Lheqyd3v5UKoI2d5zXlv-118" style="edgeStyle=orthogonalEdgeStyle;shape=link;curved=0;rounded=1;sketch=0;orthogonalLoop=1;jettySize=auto;html=1;exitX=0.5;exitY=1;exitDx=0;exitDy=0;exitPerimeter=0;entryX=0.5;entryY=0;entryDx=0;entryDy=0;fontSize=41;strokeWidth=2;" parent="1" source="Lheqyd3v5UKoI2d5zXlv-110" target="Lheqyd3v5UKoI2d5zXlv-109" edge="1">
          <mxGeometry relative="1" as="geometry" />
        </mxCell>
        <mxCell id="Lheqyd3v5UKoI2d5zXlv-110" value="&lt;font style=&quot;font-size: 18px;&quot;&gt;.WORD&lt;/font&gt;" style="shape=note;whiteSpace=wrap;html=1;backgroundOutline=1;darkOpacity=0.05;sketch=1;fillColor=#D9F5FC;strokeColor=#6c8ebf;shadow=1;gradientDirection=south;gradientColor=#7ea6e0;" parent="1" vertex="1">
          <mxGeometry x="2615.5" y="-1740" width="70" height="100" as="geometry" />
        </mxCell>
        <mxCell id="_ofi-eHrRNwAqA-1qhmZ-42" style="edgeStyle=orthogonalEdgeStyle;rounded=0;orthogonalLoop=1;jettySize=auto;html=1;entryX=0.5;entryY=0;entryDx=0;entryDy=0;fontSize=14;strokeWidth=1;" edge="1" parent="1" source="Lheqyd3v5UKoI2d5zXlv-111" target="_ofi-eHrRNwAqA-1qhmZ-40">
          <mxGeometry relative="1" as="geometry" />
        </mxCell>
        <mxCell id="Lheqyd3v5UKoI2d5zXlv-111" value="&lt;span style=&quot;text-align: left;&quot;&gt;&lt;font style=&quot;font-size: 12px;&quot;&gt;QC5001 qPCR MasterMix Qualification&lt;/font&gt;&lt;/span&gt;" style="text;whiteSpace=wrap;html=1;align=center;strokeColor=default;rounded=1;glass=0;shadow=0;sketch=0;fillColor=default;" parent="1" vertex="1">
          <mxGeometry x="2800.5" y="-1630" width="100" height="60" as="geometry" />
        </mxCell>
        <mxCell id="Lheqyd3v5UKoI2d5zXlv-119" style="edgeStyle=orthogonalEdgeStyle;shape=link;curved=0;rounded=1;sketch=0;orthogonalLoop=1;jettySize=auto;html=1;exitX=0.5;exitY=1;exitDx=0;exitDy=0;exitPerimeter=0;entryX=0.5;entryY=0;entryDx=0;entryDy=0;fontSize=41;strokeWidth=2;" parent="1" source="Lheqyd3v5UKoI2d5zXlv-112" target="Lheqyd3v5UKoI2d5zXlv-111" edge="1">
          <mxGeometry relative="1" as="geometry" />
        </mxCell>
        <mxCell id="Lheqyd3v5UKoI2d5zXlv-112" value="&lt;font style=&quot;font-size: 18px;&quot;&gt;.WORD&lt;/font&gt;" style="shape=note;whiteSpace=wrap;html=1;backgroundOutline=1;darkOpacity=0.05;sketch=1;fillColor=#D9F5FC;strokeColor=#6c8ebf;shadow=1;gradientDirection=south;gradientColor=#7ea6e0;" parent="1" vertex="1">
          <mxGeometry x="2815.5" y="-1740" width="70" height="100" as="geometry" />
        </mxCell>
        <mxCell id="Lheqyd3v5UKoI2d5zXlv-115" style="edgeStyle=orthogonalEdgeStyle;shape=link;curved=0;rounded=1;sketch=0;orthogonalLoop=1;jettySize=auto;html=1;exitX=0.5;exitY=1;exitDx=0;exitDy=0;exitPerimeter=0;entryX=0.5;entryY=0;entryDx=0;entryDy=0;fontSize=41;strokeWidth=2;" parent="1" source="Lheqyd3v5UKoI2d5zXlv-113" target="Lheqyd3v5UKoI2d5zXlv-114" edge="1">
          <mxGeometry relative="1" as="geometry" />
        </mxCell>
        <mxCell id="Lheqyd3v5UKoI2d5zXlv-113" value="&lt;font style=&quot;font-size: 18px;&quot;&gt;.WORD&lt;/font&gt;" style="shape=note;whiteSpace=wrap;html=1;backgroundOutline=1;darkOpacity=0.05;sketch=1;fillColor=#D9F5FC;strokeColor=#6c8ebf;shadow=1;gradientDirection=south;gradientColor=#7ea6e0;" parent="1" vertex="1">
          <mxGeometry x="1728.91" y="-1740" width="70" height="100" as="geometry" />
        </mxCell>
        <mxCell id="_ofi-eHrRNwAqA-1qhmZ-7" style="edgeStyle=orthogonalEdgeStyle;rounded=0;orthogonalLoop=1;jettySize=auto;html=1;entryX=0.5;entryY=0;entryDx=0;entryDy=0;" edge="1" parent="1" source="Lheqyd3v5UKoI2d5zXlv-114" target="_ofi-eHrRNwAqA-1qhmZ-6">
          <mxGeometry relative="1" as="geometry" />
        </mxCell>
        <mxCell id="Lheqyd3v5UKoI2d5zXlv-114" value="&lt;span style=&quot;text-align: left;&quot;&gt;&lt;font style=&quot;font-size: 12px;&quot;&gt;BMR001 QTRACE and MultiTRACE Genotyping Plate Manufacturing protocol&lt;/font&gt;&lt;/span&gt;" style="text;whiteSpace=wrap;html=1;align=center;strokeColor=default;rounded=1;glass=0;shadow=0;sketch=0;fillColor=default;" parent="1" vertex="1">
          <mxGeometry x="1688.91" y="-1630" width="150" height="70" as="geometry" />
        </mxCell>
        <mxCell id="Lheqyd3v5UKoI2d5zXlv-120" value="&lt;div style=&quot;&quot;&gt;&lt;span style=&quot;background-color: initial;&quot;&gt;QTRACE Genotyping Plate Batch Record Supplement&lt;/span&gt;&lt;/div&gt;" style="text;whiteSpace=wrap;html=1;align=center;strokeColor=default;rounded=1;glass=0;shadow=0;sketch=0;fillColor=default;" parent="1" vertex="1">
          <mxGeometry x="1698.41" y="-790" width="131" height="60" as="geometry" />
        </mxCell>
        <mxCell id="Lheqyd3v5UKoI2d5zXlv-129" style="edgeStyle=orthogonalEdgeStyle;shape=link;curved=0;rounded=1;sketch=0;orthogonalLoop=1;jettySize=auto;html=1;exitX=0.5;exitY=1;exitDx=0;exitDy=0;exitPerimeter=0;entryX=0.5;entryY=0;entryDx=0;entryDy=0;fontSize=41;strokeWidth=2;" parent="1" source="Lheqyd3v5UKoI2d5zXlv-121" target="Lheqyd3v5UKoI2d5zXlv-120" edge="1">
          <mxGeometry relative="1" as="geometry" />
        </mxCell>
        <mxCell id="Lheqyd3v5UKoI2d5zXlv-121" value="&lt;font style=&quot;font-size: 18px;&quot;&gt;.PDF&lt;/font&gt;" style="shape=note;whiteSpace=wrap;html=1;backgroundOutline=1;darkOpacity=0.05;sketch=1;fillColor=#f8cecc;strokeColor=#b85450;shadow=1;gradientDirection=south;gradientColor=#ea6b66;" parent="1" vertex="1">
          <mxGeometry x="1728.91" y="-900" width="70" height="100" as="geometry" />
        </mxCell>
        <mxCell id="Lheqyd3v5UKoI2d5zXlv-122" value="&lt;font style=&quot;font-size: 41px;&quot;&gt;Main overview of production&lt;/font&gt;" style="text;html=1;align=center;verticalAlign=middle;whiteSpace=wrap;rounded=0;glass=0;sketch=0;fontSize=30;fillColor=#FFFDF3;strokeColor=#36393d;" parent="1" vertex="1">
          <mxGeometry x="-959" y="-1650" width="528" height="90" as="geometry" />
        </mxCell>
        <mxCell id="Lheqyd3v5UKoI2d5zXlv-123" value="MultiTRACE V2 Genotyping Plate Batch Record Supplement" style="text;whiteSpace=wrap;html=1;align=center;strokeColor=default;rounded=1;glass=0;shadow=0;sketch=0;fillColor=default;" parent="1" vertex="1">
          <mxGeometry x="1589.91" y="-1150" width="131" height="60" as="geometry" />
        </mxCell>
        <mxCell id="Lheqyd3v5UKoI2d5zXlv-124" value="MultiTRACE V3 Genotyping Plate Batch Record Supplement" style="text;whiteSpace=wrap;html=1;align=center;strokeColor=default;rounded=1;glass=0;shadow=0;sketch=0;fillColor=default;" parent="1" vertex="1">
          <mxGeometry x="1798.91" y="-1150" width="131" height="60" as="geometry" />
        </mxCell>
        <mxCell id="Lheqyd3v5UKoI2d5zXlv-128" style="edgeStyle=orthogonalEdgeStyle;shape=link;curved=0;rounded=1;sketch=0;orthogonalLoop=1;jettySize=auto;html=1;exitX=0.5;exitY=1;exitDx=0;exitDy=0;exitPerimeter=0;entryX=0.5;entryY=0;entryDx=0;entryDy=0;fontSize=41;strokeWidth=2;" parent="1" source="Lheqyd3v5UKoI2d5zXlv-125" target="Lheqyd3v5UKoI2d5zXlv-123" edge="1">
          <mxGeometry relative="1" as="geometry" />
        </mxCell>
        <mxCell id="Lheqyd3v5UKoI2d5zXlv-125" value="&lt;font style=&quot;font-size: 18px;&quot;&gt;.WORD&lt;/font&gt;" style="shape=note;whiteSpace=wrap;html=1;backgroundOutline=1;darkOpacity=0.05;sketch=1;fillColor=#D9F5FC;strokeColor=#6c8ebf;shadow=1;gradientDirection=south;gradientColor=#7ea6e0;" parent="1" vertex="1">
          <mxGeometry x="1620.41" y="-1260" width="70" height="100" as="geometry" />
        </mxCell>
        <mxCell id="Lheqyd3v5UKoI2d5zXlv-127" style="edgeStyle=orthogonalEdgeStyle;shape=link;curved=0;rounded=1;sketch=0;orthogonalLoop=1;jettySize=auto;html=1;exitX=0.5;exitY=1;exitDx=0;exitDy=0;exitPerimeter=0;entryX=0.5;entryY=0;entryDx=0;entryDy=0;fontSize=41;strokeWidth=2;" parent="1" source="Lheqyd3v5UKoI2d5zXlv-126" target="Lheqyd3v5UKoI2d5zXlv-124" edge="1">
          <mxGeometry relative="1" as="geometry" />
        </mxCell>
        <mxCell id="Lheqyd3v5UKoI2d5zXlv-126" value="&lt;font style=&quot;font-size: 18px;&quot;&gt;.WORD&lt;/font&gt;" style="shape=note;whiteSpace=wrap;html=1;backgroundOutline=1;darkOpacity=0.05;sketch=1;fillColor=#D9F5FC;strokeColor=#6c8ebf;shadow=1;gradientDirection=south;gradientColor=#7ea6e0;" parent="1" vertex="1">
          <mxGeometry x="1829.41" y="-1260" width="70" height="100" as="geometry" />
        </mxCell>
        <mxCell id="_ofi-eHrRNwAqA-1qhmZ-3" style="edgeStyle=orthogonalEdgeStyle;rounded=0;orthogonalLoop=1;jettySize=auto;html=1;entryX=0.5;entryY=0;entryDx=0;entryDy=0;" edge="1" parent="1" source="_ofi-eHrRNwAqA-1qhmZ-1" target="_ofi-eHrRNwAqA-1qhmZ-2">
          <mxGeometry relative="1" as="geometry" />
        </mxCell>
        <mxCell id="_ofi-eHrRNwAqA-1qhmZ-1" value="Master&lt;br&gt;mix" style="shape=cylinder3;whiteSpace=wrap;html=1;boundedLbl=1;backgroundOutline=1;size=15;rounded=1;shadow=0;glass=0;sketch=0;fontFamily=Helvetica;fontSize=18;strokeWidth=1;gradientDirection=north;fillColor=#f8cecc;strokeColor=#b85450;" vertex="1" parent="1">
          <mxGeometry x="-345" y="-1485" width="70" height="110" as="geometry" />
        </mxCell>
        <mxCell id="_ofi-eHrRNwAqA-1qhmZ-2" value="Tube" style="rounded=0;whiteSpace=wrap;html=1;shadow=0;glass=0;sketch=0;fontFamily=Helvetica;fontSize=18;strokeColor=#6c8ebf;strokeWidth=1;fillColor=#dae8fc;gradientDirection=north;" vertex="1" parent="1">
          <mxGeometry x="-350" y="-1210" width="80" height="60" as="geometry" />
        </mxCell>
        <mxCell id="_ofi-eHrRNwAqA-1qhmZ-4" value="9." style="text;html=1;strokeColor=none;fillColor=none;align=center;verticalAlign=middle;whiteSpace=wrap;rounded=0;shadow=0;glass=0;sketch=0;fontFamily=Helvetica;fontSize=18;" vertex="1" parent="1">
          <mxGeometry x="-320" y="-1320" width="60" height="30" as="geometry" />
        </mxCell>
        <mxCell id="_ofi-eHrRNwAqA-1qhmZ-8" style="edgeStyle=orthogonalEdgeStyle;rounded=0;orthogonalLoop=1;jettySize=auto;html=1;entryX=0;entryY=0;entryDx=40;entryDy=0;entryPerimeter=0;" edge="1" parent="1" source="_ofi-eHrRNwAqA-1qhmZ-5" target="Lheqyd3v5UKoI2d5zXlv-126">
          <mxGeometry relative="1" as="geometry">
            <Array as="points">
              <mxPoint x="1869.91" y="-1410" />
              <mxPoint x="1869.91" y="-1295" />
            </Array>
          </mxGeometry>
        </mxCell>
        <mxCell id="_ofi-eHrRNwAqA-1qhmZ-22" style="edgeStyle=orthogonalEdgeStyle;rounded=0;orthogonalLoop=1;jettySize=auto;html=1;entryX=0.5;entryY=0;entryDx=0;entryDy=0;entryPerimeter=0;fontSize=41;strokeWidth=1;" edge="1" parent="1" source="_ofi-eHrRNwAqA-1qhmZ-5" target="Lheqyd3v5UKoI2d5zXlv-125">
          <mxGeometry relative="1" as="geometry">
            <Array as="points">
              <mxPoint x="1655.91" y="-1410" />
            </Array>
          </mxGeometry>
        </mxCell>
        <mxCell id="_ofi-eHrRNwAqA-1qhmZ-5" value="&lt;span style=&quot;font-size: 18px;&quot;&gt;Production of Genotyping plates&lt;br&gt;V2, V3 &amp;amp; EP&lt;br&gt;&lt;/span&gt;" style="whiteSpace=wrap;html=1;aspect=fixed;rounded=1;shadow=0;glass=0;sketch=0;fontFamily=Helvetica;fontSize=12;strokeColor=#B09500;fillColor=#e3c800;gradientDirection=north;strokeWidth=1;fontColor=#000000;gradientColor=#ffffff;" vertex="1" parent="1">
          <mxGeometry x="1683.91" y="-1490" width="160" height="160" as="geometry" />
        </mxCell>
        <mxCell id="_ofi-eHrRNwAqA-1qhmZ-6" value="&lt;font style=&quot;font-size: 30px;&quot;&gt;6.&lt;/font&gt;" style="text;html=1;strokeColor=none;fillColor=none;align=center;verticalAlign=middle;whiteSpace=wrap;rounded=0;shadow=0;glass=0;sketch=0;fontFamily=Helvetica;fontSize=18;" vertex="1" parent="1">
          <mxGeometry x="1748.91" y="-1520" width="30" height="30" as="geometry" />
        </mxCell>
        <mxCell id="_ofi-eHrRNwAqA-1qhmZ-13" value="&lt;font style=&quot;font-size: 18px;&quot;&gt;.PDF&lt;/font&gt;" style="shape=note;whiteSpace=wrap;html=1;backgroundOutline=1;darkOpacity=0.05;sketch=1;fillColor=#f8cecc;strokeColor=#b85450;shadow=1;gradientDirection=south;gradientColor=#ea6b66;" vertex="1" parent="1">
          <mxGeometry x="981.91" y="-920" width="70" height="100" as="geometry" />
        </mxCell>
        <mxCell id="_ofi-eHrRNwAqA-1qhmZ-12" style="edgeStyle=orthogonalEdgeStyle;shape=link;curved=0;rounded=1;sketch=0;orthogonalLoop=1;jettySize=auto;html=1;exitX=0.5;exitY=1;exitDx=0;exitDy=0;exitPerimeter=0;entryX=0.5;entryY=0;entryDx=0;entryDy=0;fontSize=41;strokeWidth=2;" edge="1" parent="1" source="_ofi-eHrRNwAqA-1qhmZ-13" target="_ofi-eHrRNwAqA-1qhmZ-11">
          <mxGeometry relative="1" as="geometry" />
        </mxCell>
        <mxCell id="_ofi-eHrRNwAqA-1qhmZ-11" value="&lt;div style=&quot;&quot;&gt;BMR002 QTRACE Assay Batch Record&lt;br&gt;&lt;/div&gt;" style="text;whiteSpace=wrap;html=1;align=center;strokeColor=default;rounded=1;glass=0;shadow=0;sketch=0;fillColor=default;" vertex="1" parent="1">
          <mxGeometry x="951.41" y="-810" width="131" height="50" as="geometry" />
        </mxCell>
        <mxCell id="_ofi-eHrRNwAqA-1qhmZ-24" style="edgeStyle=orthogonalEdgeStyle;rounded=0;orthogonalLoop=1;jettySize=auto;html=1;exitX=0.5;exitY=1;exitDx=0;exitDy=0;fontSize=41;strokeWidth=1;" edge="1" parent="1" source="_ofi-eHrRNwAqA-1qhmZ-4" target="_ofi-eHrRNwAqA-1qhmZ-4">
          <mxGeometry relative="1" as="geometry" />
        </mxCell>
        <mxCell id="_ofi-eHrRNwAqA-1qhmZ-25" value="&lt;span style=&quot;font-size:10.0pt;font-family:&lt;br/&gt;&amp;quot;Arial&amp;quot;,sans-serif;mso-fareast-font-family:Batang;mso-bidi-font-family:&amp;quot;Times New Roman&amp;quot;;&lt;br/&gt;mso-ansi-language:EN-US;mso-fareast-language:EN-US;mso-bidi-language:AR-SA&quot; lang=&quot;EN-US&quot;&gt;Each&lt;br/&gt;assay must be tested against one positive DNA using four different DNA input&lt;br/&gt;values and a no template control (NTC). Each assay is tested alongside its most&lt;br/&gt;recent previous lot&amp;nbsp;&lt;/span&gt;&lt;span style=&quot;font-size: 18px;&quot;&gt;&lt;br&gt;&lt;/span&gt;" style="whiteSpace=wrap;html=1;aspect=fixed;rounded=1;shadow=0;glass=0;sketch=0;fontFamily=Helvetica;fontSize=12;strokeColor=#B09500;fillColor=#e3c800;gradientDirection=north;strokeWidth=1;fontColor=#000000;gradientColor=#ffffff;" vertex="1" parent="1">
          <mxGeometry x="2170.91" y="-1489" width="160" height="160" as="geometry" />
        </mxCell>
        <mxCell id="_ofi-eHrRNwAqA-1qhmZ-26" value="&lt;div style=&quot;font-size: 14px;&quot;&gt;&lt;br&gt;&lt;/div&gt;&lt;div style=&quot;font-size: 14px;&quot;&gt;+/- pattern for 8/8 DNAs tested must match&lt;br&gt;expected pattern&lt;/div&gt;&lt;span style=&quot;font-size: 14px;&quot; lang=&quot;EN-US&quot;&gt;&lt;font style=&quot;font-size: 14px;&quot;&gt;&lt;br&gt;No more than 1&lt;br&gt;Atypical result/DNA&lt;/font&gt;&lt;/span&gt;&lt;span style=&quot;font-size: 18px;&quot;&gt;&lt;br&gt;&lt;/span&gt;" style="whiteSpace=wrap;html=1;aspect=fixed;rounded=1;shadow=0;glass=0;sketch=0;fontFamily=Helvetica;fontSize=12;strokeColor=#B09500;fillColor=#e3c800;gradientDirection=north;strokeWidth=1;fontColor=#000000;gradientColor=#ffffff;" vertex="1" parent="1">
          <mxGeometry x="2370.91" y="-1489" width="160" height="160" as="geometry" />
        </mxCell>
        <mxCell id="_ofi-eHrRNwAqA-1qhmZ-31" value="&lt;span style=&quot;font-size: 41px;&quot;&gt;Production&lt;/span&gt;" style="text;html=1;strokeColor=none;fillColor=none;align=center;verticalAlign=middle;whiteSpace=wrap;rounded=0;shadow=0;glass=0;fontSize=14;rotation=-90;" vertex="1" parent="1">
          <mxGeometry x="403" y="-1408" width="250" height="50" as="geometry" />
        </mxCell>
        <mxCell id="_ofi-eHrRNwAqA-1qhmZ-33" value="&lt;span style=&quot;font-size: 41px;&quot;&gt;Recording&lt;/span&gt;" style="text;html=1;strokeColor=none;fillColor=none;align=center;verticalAlign=middle;whiteSpace=wrap;rounded=0;shadow=0;glass=0;fontSize=14;rotation=-90;" vertex="1" parent="1">
          <mxGeometry x="400" y="-865" width="250" height="50" as="geometry" />
        </mxCell>
        <mxCell id="_ofi-eHrRNwAqA-1qhmZ-35" value="" style="strokeWidth=2;html=1;shape=mxgraph.flowchart.annotation_2;align=left;labelPosition=right;pointerEvents=1;shadow=0;glass=0;fontSize=14;fillColor=#E6E6E6;gradientColor=none;" vertex="1" parent="1">
          <mxGeometry x="560" y="-1760" width="90" height="750" as="geometry" />
        </mxCell>
        <mxCell id="_ofi-eHrRNwAqA-1qhmZ-36" value="" style="strokeWidth=2;html=1;shape=mxgraph.flowchart.annotation_2;align=left;labelPosition=right;pointerEvents=1;shadow=0;glass=0;fontSize=14;fillColor=#E6E6E6;gradientColor=none;" vertex="1" parent="1">
          <mxGeometry x="560" y="-1000" width="90" height="310" as="geometry" />
        </mxCell>
        <mxCell id="_ofi-eHrRNwAqA-1qhmZ-39" value="&lt;div style=&quot;font-size: 14px;&quot;&gt;&lt;br&gt;&lt;/div&gt;&lt;div style=&quot;font-size: 14px;&quot;&gt;+/- pattern for 8/8 DNAs tested must match&lt;br&gt;expected pattern&lt;/div&gt;&lt;span style=&quot;font-size: 14px;&quot; lang=&quot;EN-US&quot;&gt;&lt;font style=&quot;font-size: 14px;&quot;&gt;&lt;br&gt;No more than 1&lt;br&gt;Atypical result/DNA&lt;/font&gt;&lt;/span&gt;&lt;span style=&quot;font-size: 18px;&quot;&gt;&lt;br&gt;&lt;/span&gt;" style="whiteSpace=wrap;html=1;aspect=fixed;rounded=1;shadow=0;glass=0;sketch=0;fontFamily=Helvetica;fontSize=12;strokeColor=#B09500;fillColor=#e3c800;gradientDirection=north;strokeWidth=1;fontColor=#000000;gradientColor=#ffffff;" vertex="1" parent="1">
          <mxGeometry x="2570.91" y="-1489" width="160" height="160" as="geometry" />
        </mxCell>
        <mxCell id="_ofi-eHrRNwAqA-1qhmZ-40" value="&lt;div style=&quot;font-size: 14px;&quot;&gt;&lt;br&gt;&lt;/div&gt;&lt;div style=&quot;font-size: 14px;&quot;&gt;+/- pattern for 8/8 DNAs tested must match&lt;br&gt;expected pattern&lt;/div&gt;&lt;span style=&quot;font-size: 14px;&quot; lang=&quot;EN-US&quot;&gt;&lt;font style=&quot;font-size: 14px;&quot;&gt;&lt;br&gt;No more than 1&lt;br&gt;Atypical result/DNA&lt;/font&gt;&lt;/span&gt;&lt;span style=&quot;font-size: 18px;&quot;&gt;&lt;br&gt;&lt;/span&gt;" style="whiteSpace=wrap;html=1;aspect=fixed;rounded=1;shadow=0;glass=0;sketch=0;fontFamily=Helvetica;fontSize=12;strokeColor=#B09500;fillColor=#e3c800;gradientDirection=north;strokeWidth=1;fontColor=#000000;gradientColor=#ffffff;" vertex="1" parent="1">
          <mxGeometry x="2770.91" y="-1489" width="160" height="160" as="geometry" />
        </mxCell>
      </root>
    </mxGraphModel>
  </diagram>
</mxfile>
